<?xml version="1.0" encoding="utf-8"?>
<!-- Generator: Adobe Illustrator 15.0.2, SVG Export Plug-In . SVG Version: 6.00 Build 0)  -->
<!DOCTYPE svg PUBLIC "-//W3C//DTD SVG 1.1//EN" "http://www.w3.org/Graphics/SVG/1.1/DTD/svg11.dtd">
<svg version="1.1" id="Layer_1" xmlns="http://www.w3.org/2000/svg" xmlns:xlink="http://www.w3.org/1999/xlink" x="0px" y="0px"
	 width="1000px" height="1000px" viewBox="0 0 1000 1000" enable-background="new 0 0 1000 1000" xml:space="preserve">
<path d="M387.673,431.407L322.02,272.831c-46.445,20.572-88.91,48.662-125.365,83.143l121.8,121.815
	C338.883,458.918,362.169,443.228,387.673,431.407 M489.236,406.947V235.298c-51.681,1.27-101.37,11.354-147.463,29.134
	l65.717,158.753C433.155,413.709,460.586,408.088,489.236,406.947 M743.18,562.232l159.444-66.104
	c-20.814-46.461-49.432-88.555-84.251-124.818L696.766,492.966C715.62,513.41,731.359,536.698,743.18,562.232 M60.175,643.144
	c-0.289,3.839-0.096,10.952,4.016,15.321c3.341,3.567,9.218,5.397,17.441,5.397h150.74c1.124-28.668,6.746-56.132,16.253-81.795
	L88.859,515.851C73.28,555.761,63.259,598.465,60.175,643.144 M658.222,264.43c-46.093-17.779-95.815-27.864-147.529-29.133v171.65
	c28.652,1.141,56.115,6.762,81.811,16.236L658.222,264.43z M681.604,477.789L803.34,356.021
	c-36.486-34.528-78.951-62.602-125.397-83.19l-65.621,158.576C637.824,443.228,661.176,458.935,681.604,477.789 M303.293,492.934
	L181.654,371.263c-34.818,36.279-63.47,78.39-84.283,124.866l159.445,66.104C268.667,536.682,284.375,513.379,303.293,492.934
	 M727.825,580.221v-0.065c-11.113-26.756-26.948-50.99-46.22-72.015L572.813,616.933c10.503,13.234,17.376,29.277,19.402,46.929
	h153.95c-1.253-29.504-7.516-57.722-18.275-83.643h-0.065V580.221z M272.137,580.156v0.064h-0.032
	c-10.759,25.922-17.023,54.138-18.275,83.643H407.78c2.056-17.667,8.897-33.712,19.432-46.961L318.422,508.095
	C299.117,529.149,283.283,553.368,272.137,580.156 M499.998,175.248c-263.033,0-482.542,204.542-499.791,464.909
	c-1.542,23.446,5.59,45.948,20.075,61.493c10.407,11.146,29.55,26.579,61.35,26.579h281.083
	c20.237,42.897,74.134,96.522,137.281,96.522c63.117,0,117.045-53.625,137.283-96.522H918.33c31.831,0,50.974-15.304,61.35-26.45
	c14.518-15.529,21.68-38.993,20.106-62.36C982.539,378.971,763.029,175.248,499.998,175.248 M951.479,673.112
	c-7.551,8.093-18.693,12.205-33.147,12.205H592.215c-5.366,46.35-44.455,82.598-92.217,82.598
	c-47.795,0-86.854-36.248-92.217-82.598H81.632c-14.423,0-25.568-4.111-33.116-12.205c-9.155-9.766-10.375-22.484-9.765-31.446
	c7.966-114.349,58.362-216.555,134.712-292.631c0.224-0.21,0.29-0.45,0.482-0.626c0.127-0.193,0.385-0.258,0.577-0.418
	c42.368-41.933,92.57-75.835,148.332-99.058c0.256-0.146,0.417-0.354,0.674-0.481c0.193-0.064,0.384-0.032,0.545-0.098
	c54.443-22.484,113.834-35.043,175.922-35.043c62.088,0,121.479,12.559,175.889,35.043c0.191,0.063,0.386,0.032,0.547,0.098
	c0.288,0.128,0.449,0.337,0.674,0.481c55.761,23.19,105.899,57.078,148.267,98.945c0.225,0.209,0.547,0.272,0.739,0.53
	c0.257,0.24,0.354,0.546,0.545,0.819c76.286,76.045,126.619,178.187,134.584,292.438
	C961.854,650.628,960.633,663.348,951.479,673.112 M911.136,515.851L751.37,582.067c9.474,25.663,15.127,53.127,16.22,81.795
	h150.741c8.222,0,14.132-1.831,17.472-5.397c4.112-4.368,4.273-11.482,4.016-15.338
	C936.702,598.448,926.681,555.761,911.136,515.851 M489.236,428.388c-59.871,2.603-114.186,26.564-155.654,64.546l108.792,108.792
	c13.234-10.487,29.261-17.329,46.862-19.384V428.388z M510.692,428.388V582.34c17.666,2.055,33.694,8.896,46.961,19.415
	l108.759-108.79C624.977,454.951,570.629,430.99,510.692,428.388 M499.998,644.541c-16.574,0-30.033,13.475-30.033,30.032
	c0,16.559,13.458,30.049,30.033,30.049c16.541,0,30.032-13.49,30.032-30.049C530.029,658.016,516.538,644.541,499.998,644.541"/>
</svg>
