<?xml version="1.0" encoding="utf-8"?>
<!-- Generator: Adobe Illustrator 16.0.0, SVG Export Plug-In . SVG Version: 6.00 Build 0)  -->
<!DOCTYPE svg PUBLIC "-//W3C//DTD SVG 1.1//EN" "http://www.w3.org/Graphics/SVG/1.1/DTD/svg11.dtd">
<svg version="1.1" id="Layer_1" xmlns="http://www.w3.org/2000/svg" xmlns:xlink="http://www.w3.org/1999/xlink" x="0px" y="0px"
	 width="1000px" height="1000px" viewBox="0 0 1000 1000" enable-background="new 0 0 1000 1000" xml:space="preserve">
<g>
	<path fill="#231F20" d="M332.969,710.292c-2.35-9.017-6.181-9.017-8.531,0l-7.05,27.074c-2.35,9.017-5.645,8.89-7.33-0.28
		l-36.935-201.732c-1.66-9.17-4.418-9.17-6.079,0l-36.934,201.732c-1.686,9.17-4.981,9.297-7.331,0.28l-7.05-27.074
		c-2.35-9.017-6.181-9.017-8.531,0l-7.024,27.074c-2.35,9.017-4.266,24.036-4.266,33.358v212.359c0,9.322,7.637,16.96,16.935,16.96
		h114.48c9.297,0,16.935-7.638,16.935-16.96V770.725c0-9.322-1.916-24.342-4.266-33.358L332.969,710.292z M591.533,501.867
		c-2.35-9.017-6.181-9.017-8.531,0l-14.712,56.525c-2.35,9.016-5.645,8.889-7.305-0.281l-52.617-287.198
		c8.174-3.372,13.896-11.366,13.896-20.714c0-8.353-4.752-15.326-11.495-19.208c-0.025-1.84-0.356-5.645-2.656-10.32l5.544-0.306
		c0,0,1.787,0.332,0-6.002c0,0-1.074-6.667,0.918-16.015c0,0,1.227-5.032,0-22.681c0,0,1.968,0.204,1.968-4.624v-11.928
		c0,0,4.393,0,4.393-4.802v-22.707c0,0,3.857-1.635-0.536-18.825c0,0-2.095-8.02-1.303-17.113c0,0,2.401,4.597,4.342,6.59
		c0,0-0.536,6.999,9.425,19.055c0,0,0.179,3.474,2.096,5.363c0,0-0.92,4.546,1.762,7.229c0,0,1.635,1.89,5.441,0
		c0,0,2.886-1.201,4.393-1.201c0,0,0.895-0.383,0.895-1.533c0,0,0.663-2.758-2.478-4.699c0,0-5.212-1.583-5.212-9.374
		c0,0,0.18-16.935-8.939-21.634c0,0-0.535-7.791-5.618-15.913c0,0,2.527-7.561-9.732-14.79c0,0-2.223-1.583-11.366-2.809v-3.755
		c0,0,4.01-2.86,4.01-6.053c0,0-2.299-0.971-1.431-4.7c0,0,2.197-7.228-3.064-9.936c0,0-2.835-12.72-14.354-9.986
		c0,0-9.272,2.018-6.437,12.413l-13.128-9.527c0,0,4.061-7.841-10.523-7.841L440.451,7.675c0.945-2.887,0.511-5.696-1.379-6.973
		c-2.478-1.687-6.564-0.026-9.119,3.729c-2.503,3.754-2.58,8.173-0.051,9.834c1.839,1.276,4.521,0.663,6.871-1.227l21.353,13.895
		c-1.072,1.226-2.503,3.397-3.806,7.151c0,0-5.389,16.22-5.389,20.435c0,0,0.766,6.743,9.349,11.545c0,0,9.348,5.977,14.022,10.701
		c0,0-2.043,9.63,0.613,17.957c2.631,8.352-2.069,16.066-2.069,16.066s-3.219,6.411-0.588,12.567l-0.281,28.658v0.689
		c0,0,0.077,4.036,2.656,4.036c0,0,2.197,0.076,4.062-0.869c0,0-0.128,26.359-1.022,33.665c-0.843,7.331,1.175,13.18,8.506,14.482
		c0,0-0.792,3.934,1.456,4.828c0,0,8.608,5.083,8.608,12.107c0,0-0.077,3.601-3.525,5.262c0,0-2.197,0.537-1.558,4.597
		c-6.922,3.807-11.775,10.907-11.775,19.388c0,9.348,5.722,17.342,13.869,20.714l-52.565,287.198
		c-1.686,9.17-4.981,9.297-7.331,0.281l-14.712-56.525c-2.35-9.017-6.181-9.017-8.531,0l-14.712,56.525
		c-2.35,9.016-4.266,24.034-4.266,33.358v391.333c0,9.322,7.612,16.96,16.96,16.96h187.48c9.297,0,16.935-7.638,16.935-16.96
		V591.751c0-9.324-1.916-24.343-4.266-33.358L591.533,501.867z M488.7,61.671H481.6c-3.832-2.708-9.757-3.039-9.757-3.039
		c-4.802-4.802-11.928-6.36-11.928-6.36c0.97-4.93,0.97-16.756,0.97-16.756c2.605-0.817,4.879-1.941,6.232-2.732l16.603,10.804
		c-0.715,4.214,1.456,6.514,2.146,7.151c-0.103,0.102-0.128,0.153-0.204,0.205c-4.113,4.111,3.039,7.151,3.039,7.151V61.671z
		 M799.499,737.366l-7.05-27.074c-2.35-9.017-6.182-9.017-8.531,0l-7.023,27.074c-2.351,9.017-5.646,8.89-7.331-0.28
		l-36.935-201.732c-1.66-9.17-4.418-9.17-6.078,0l-36.935,201.732c-1.686,9.17-4.98,9.297-7.331,0.28l-7.05-27.074
		c-2.35-9.017-6.181-9.017-8.531,0l-7.049,27.074c-2.351,9.017-4.266,24.036-4.266,33.358v212.359c0,9.322,7.611,16.96,16.96,16.96
		h114.48c9.297,0,16.935-7.638,16.935-16.96V770.725C803.765,761.402,801.849,746.383,799.499,737.366z"/>
</g>
</svg>
