<?xml version="1.0" encoding="utf-8"?>
<!-- Generator: Adobe Illustrator 15.0.2, SVG Export Plug-In . SVG Version: 6.00 Build 0)  -->
<!DOCTYPE svg PUBLIC "-//W3C//DTD SVG 1.1//EN" "http://www.w3.org/Graphics/SVG/1.1/DTD/svg11.dtd">
<svg version="1.1" id="Layer_1" xmlns="http://www.w3.org/2000/svg" xmlns:xlink="http://www.w3.org/1999/xlink" x="0px" y="0px"
	 width="1000px" height="1000px" viewBox="0 0 1000 1000" enable-background="new 0 0 1000 1000" xml:space="preserve">
<g>
	<path d="M564.896,340.105c-111.755,0-202.2,90.488-202.2,202.201c0,111.714,90.445,202.202,202.2,202.202
		c111.626,0,202.158-90.488,202.158-202.202C767.054,430.594,676.521,340.105,564.896,340.105 M541.4,512.697
		c-35.592,35.505-84.112,44.436-108.611,20.067c-24.347-24.522-15.46-73.02,20.045-108.591
		c35.548-35.505,84.069-44.393,108.612-20.001C585.728,428.629,576.862,477.17,541.4,512.697 M683.989,655.374
		c-19.325,19.324-44.895,24.958-57.035,12.795c-12.185-12.185-6.551-37.732,12.752-57.036
		c19.303-19.324,44.896-25.045,57.036-12.817C709.014,610.522,703.292,636.049,683.989,655.374 M944.536,137.141H489.387
		c-30.657,0-69.437,11.398-86.426,25.352c-16.988,13.909-55.9,25.264-86.426,25.264h-52.625v-28.364
		c0-12.25-10-22.251-22.207-22.251H97.694c-12.229,0-22.186,10.001-22.186,22.251v28.364H55.594C25.068,187.756,0,212.758,0,243.307
		V807.33c0,30.57,25.068,55.529,55.594,55.529h888.942c30.527,0,55.464-24.959,55.464-55.529V192.712
		C1000,162.143,975.063,137.141,944.536,137.141 M564.896,802.723c-143.854,0-260.372-116.561-260.372-260.416
		s116.518-260.394,260.372-260.394c143.812,0,260.329,116.538,260.329,260.394S708.708,802.723,564.896,802.723 M936.238,273.812
		c0,12.25-10.044,22.25-22.185,22.25H793.082c-12.185,0-22.229-10-22.229-22.25v-51.38c0-12.25,10.045-22.229,22.229-22.229h120.972
		c12.141,0,22.185,9.98,22.185,22.229V273.812z"/>
</g>
</svg>
