<?xml version="1.0" encoding="utf-8"?>
<!-- Generator: Adobe Illustrator 15.0.2, SVG Export Plug-In . SVG Version: 6.00 Build 0)  -->
<!DOCTYPE svg PUBLIC "-//W3C//DTD SVG 1.1//EN" "http://www.w3.org/Graphics/SVG/1.1/DTD/svg11.dtd">
<svg version="1.1" id="Layer_1" xmlns="http://www.w3.org/2000/svg" xmlns:xlink="http://www.w3.org/1999/xlink" x="0px" y="0px"
	 width="1000px" height="1000px" viewBox="0 0 1000 1000" enable-background="new 0 0 1000 1000" xml:space="preserve">
<g>
	<path d="M796.521,911.559H548.327c-51.719,0-132.584-18.883-132.584-47.584v-19.12c-36.085-19.161-61.268-45.597-61.268-82.367
		c0-36.97,30.818-65.293,87.078-112.937c-32.021-23.017-40.448-48.776-40.448-69.566c0-36.891,29.984-64.577,84.404-114.865
		c3.06-2.823,6.191-5.704,9.431-8.666c-18.685-18.445-23.862-38.163-23.862-54.361c0-32.279,23.862-56.727,63.395-97.235
		c8.587-8.805,17.73-18.206,27.072-28.104c-14.152-19.876-44.801-28.265-66.685-31.405c-16.191-41.581-63.932-71.951-121.125-71.951
		c-54.55,0-100.713,27.607-118.91,66.287c-61.01,1.769-110.799,37.824-120.608,84.97C56.86,343.617,0.173,400.702,0.173,468.996
		c0,44.801,24.687,84.632,63.237,112.399c-14.778,16.716-23.654,36.97-23.654,59.051c0,44.623,35.907,82.208,85.667,96.161
		c10.177,48.319,62.182,85.229,125.319,85.229c18.028,0,35.171-3.101,50.804-8.546v67.915
		c-1.043,18.703-24.895,22.839-42.863,32.756c-13.107,4.91-22.578,17.352-22.578,32.08c0,7.613,6.13,13.774,13.724,13.774h567.424
		c7.593,0,13.774-6.163,13.774-13.774C831.025,927.102,815.502,911.559,796.521,911.559"/>
	<path d="M867.677,638.52c52.552-14.29,85.785-35.2,85.785-58.535c0-23.215-65.274-68.632-129.751-131.8
		c36.492-11.467,59.787-27.767,59.787-46.092c0-20.97-59.966-64.518-111.506-125.797c19.439-9.699,31.564-23.235,31.564-38.321
		c0-26.217-72.827-93.855-96.042-190.174c0-3.718-3.598-6.717-6.222-6.717c-2.762,0-6.578,3-6.578,6.717h-0.218
		c-24.309,91.41-95.188,164.097-95.188,190.174c0,14.332,11.012,27.231,28.622,36.831
		c-50.843,60.702-108.562,106.576-108.562,127.287c0,17.63,21.346,33.492,55.414,44.841
		c-63.087,62.868-125.359,110.212-125.359,133.051c0,22.638,31.275,42.932,80.957,57.203
		c-66.972,58.714-127.675,102.918-127.675,125.3c0,41.184,103.992,75.469,241.604,83.001v106.935h114.248V845.488
		c137.622-7.532,241.615-41.818,241.615-83.001C1000.172,739.689,936.527,697.234,867.677,638.52"/>
</g>
</svg>
