<?xml version="1.0" encoding="utf-8"?>
<!-- Generator: Adobe Illustrator 19.1.0, SVG Export Plug-In . SVG Version: 6.00 Build 0)  -->
<svg version="1.1" id="Layer_1" xmlns="http://www.w3.org/2000/svg" xmlns:xlink="http://www.w3.org/1999/xlink" x="0px" y="0px"
	 viewBox="212 -140 1000 1000" style="enable-background:new 212 -140 1000 1000;" xml:space="preserve">
<style type="text/css">
	.st0{fill:#999999;}
</style>
<g>
	<path class="st0" d="M776.9,200.1c-111.8,0-202.2,90.5-202.2,202.2c0,111.7,90.4,202.2,202.2,202.2c111.6,0,202.2-90.5,202.2-202.2
		C979.1,290.6,888.5,200.1,776.9,200.1 M753.4,372.7c-35.6,35.5-84.1,44.4-108.6,20.1c-24.3-24.5-15.5-73,20-108.6
		c35.5-35.5,84.1-44.4,108.6-20C797.7,288.6,788.9,337.2,753.4,372.7 M896,515.4c-19.3,19.3-44.9,25-57,12.8
		c-12.2-12.2-6.6-37.7,12.8-57c19.3-19.3,44.9-25,57-12.8C921,470.5,915.3,496,896,515.4 M1156.5-2.9H701.4
		C670.7-2.9,632,8.5,615,22.5c-17,13.9-55.9,25.3-86.4,25.3h-52.6V19.4c0-12.2-10-22.3-22.2-22.3h-144c-12.2,0-22.2,10-22.2,22.3
		v28.4h-19.9c-30.5,0-55.6,25-55.6,55.5v564c0,30.6,25.1,55.5,55.6,55.5h888.9c30.5,0,55.5-25,55.5-55.5V52.7
		C1212,22.1,1187.1-2.9,1156.5-2.9 M776.9,662.7c-143.9,0-260.4-116.6-260.4-260.4S633,141.9,776.9,141.9
		c143.8,0,260.3,116.5,260.3,260.4S920.7,662.7,776.9,662.7 M1148.2,133.8c0,12.2-10,22.2-22.2,22.2h-121c-12.2,0-22.2-10-22.2-22.2
		V82.4c0-12.2,10-22.2,22.2-22.2h121c12.1,0,22.2,10,22.2,22.2L1148.2,133.8L1148.2,133.8z"/>
</g>
</svg>
