<?xml version="1.0" encoding="utf-8"?>
<!-- Generator: Adobe Illustrator 19.1.0, SVG Export Plug-In . SVG Version: 6.00 Build 0)  -->
<svg version="1.1" id="Layer_1" xmlns="http://www.w3.org/2000/svg" xmlns:xlink="http://www.w3.org/1999/xlink" x="0px" y="0px"
	 viewBox="212 -140 1000 1000" style="enable-background:new 212 -140 1000 1000;" xml:space="preserve">
<style type="text/css">
	.st0{fill:#999999;}
</style>
<path class="st0" d="M599.7,291.4L534,132.8c-46.4,20.6-88.9,48.7-125.4,83.1l121.8,121.8C550.9,318.9,574.2,303.2,599.7,291.4
	 M701.2,266.9V95.3c-51.7,1.3-101.4,11.4-147.5,29.1l65.7,158.8C645.2,273.7,672.6,268.1,701.2,266.9 M955.2,422.2l159.4-66.1
	c-20.8-46.5-49.4-88.6-84.3-124.8L908.8,353C927.6,373.4,943.4,396.7,955.2,422.2 M272.2,503.1c-0.3,3.8-0.1,11,4,15.3
	c3.3,3.6,9.2,5.4,17.4,5.4h150.7c1.1-28.7,6.7-56.1,16.3-81.8l-159.8-66.2C285.3,415.8,275.3,458.5,272.2,503.1 M870.2,124.4
	c-46.1-17.8-95.8-27.9-147.5-29.1v171.6c28.7,1.1,56.1,6.8,81.8,16.2L870.2,124.4z M893.6,337.8L1015.3,216
	c-36.5-34.5-79-62.6-125.4-83.2l-65.6,158.6C849.8,303.2,873.2,318.9,893.6,337.8 M515.3,352.9L393.7,231.3
	c-34.8,36.3-63.5,78.4-84.3,124.9l159.4,66.1C480.7,396.7,496.4,373.4,515.3,352.9 M939.8,440.2L939.8,440.2
	c-11.1-26.8-26.9-51.1-46.2-72.1L784.8,476.9c10.5,13.2,17.4,29.3,19.4,46.9h154C956.9,494.4,950.6,466.1,939.8,440.2L939.8,440.2
	L939.8,440.2L939.8,440.2z M484.1,440.2L484.1,440.2L484.1,440.2c-10.8,26-17.1,54.2-18.3,83.7h154c2.1-17.7,8.9-33.7,19.4-47
	L530.4,368.1C511.1,389.1,495.3,413.4,484.1,440.2 M712,35.2c-263,0-482.5,204.5-499.8,464.9c-1.5,23.4,5.6,45.9,20.1,61.5
	c10.4,11.1,29.6,26.6,61.4,26.6h281.1c20.2,42.9,74.1,96.5,137.3,96.5c63.1,0,117-53.6,137.3-96.5h281.1c31.8,0,51-15.3,61.3-26.5
	c14.5-15.5,21.7-39,20.1-62.4C1194.5,239,975,35.2,712,35.2 M1163.5,533.1c-7.6,8.1-18.7,12.2-33.1,12.2H804.2
	c-5.4,46.3-44.5,82.6-92.2,82.6c-47.8,0-86.9-36.2-92.2-82.6H293.6c-14.4,0-25.6-4.1-33.1-12.2c-9.2-9.8-10.4-22.5-9.8-31.4
	c8-114.3,58.4-216.6,134.7-292.6c0.2-0.2,0.3-0.5,0.5-0.6c0.1-0.2,0.4-0.3,0.6-0.4c42.4-41.9,92.6-75.8,148.3-99.1
	c0.3-0.1,0.4-0.4,0.7-0.5c0.2-0.1,0.4,0,0.5-0.1c54.4-22.5,113.8-35,175.9-35s121.5,12.6,175.9,35c0.2,0.1,0.4,0,0.5,0.1
	c0.3,0.1,0.4,0.3,0.7,0.5c55.8,23.2,105.9,57.1,148.3,98.9c0.2,0.2,0.5,0.3,0.7,0.5c0.3,0.2,0.4,0.5,0.5,0.8
	c76.3,76,126.6,178.2,134.6,292.4C1173.9,510.6,1172.6,523.3,1163.5,533.1 M1123.1,375.9l-159.8,66.2c9.5,25.7,15.1,53.1,16.2,81.8
	h150.7c8.2,0,14.1-1.8,17.5-5.4c4.1-4.4,4.3-11.5,4-15.3C1148.7,458.4,1138.7,415.8,1123.1,375.9 M701.2,288.4
	C641.4,291,587,315,545.6,352.9l108.8,108.8c13.2-10.5,29.3-17.3,46.9-19.4V288.4L701.2,288.4z M722.7,288.4v154
	c17.7,2.1,33.7,8.9,47,19.4L878.4,353C837,315,782.6,291,722.7,288.4 M712,504.5c-16.6,0-30,13.5-30,30c0,16.6,13.5,30,30,30
	c16.5,0,30-13.5,30-30C742,518,728.5,504.5,712,504.5"/>
</svg>
