<?xml version="1.0" encoding="utf-8"?>
<!-- Generator: Adobe Illustrator 19.1.0, SVG Export Plug-In . SVG Version: 6.00 Build 0)  -->
<svg version="1.1" id="Layer_1" xmlns="http://www.w3.org/2000/svg" xmlns:xlink="http://www.w3.org/1999/xlink" x="0px" y="0px"
	 viewBox="212 -140 1000 1000" style="enable-background:new 212 -140 1000 1000;" xml:space="preserve">
<style type="text/css">
	.st0{fill:#999999;}
</style>
<g>
	<path class="st0" d="M545,570.3c-2.3-9-6.2-9-8.5,0l-7,27.1c-2.4,9-5.6,8.9-7.3-0.3l-36.9-201.7c-1.7-9.2-4.4-9.2-6.1,0
		l-36.9,201.7c-1.7,9.2-5,9.3-7.3,0.3l-7.1-27.1c-2.3-9-6.2-9-8.5,0l-7,27.1c-2.4,9-4.3,24-4.3,33.4v212.4c0,9.3,7.6,17,16.9,17
		h114.5c9.3,0,16.9-7.6,16.9-17V630.7c0-9.3-1.9-24.3-4.3-33.4L545,570.3z M803.5,361.9c-2.3-9-6.2-9-8.5,0l-14.7,56.5
		c-2.3,9-5.6,8.9-7.3-0.3l-52.6-287.2c8.2-3.4,13.9-11.4,13.9-20.7c0-8.4-4.8-15.3-11.5-19.2c0-1.8-0.4-5.6-2.7-10.3l5.5-0.3
		c0,0,1.8,0.3,0-6c0,0-1.1-6.7,0.9-16c0,0,1.2-5,0-22.7c0,0,2,0.2,2-4.6V19.1c0,0,4.4,0,4.4-4.8V-8.4c0,0,3.9-1.6-0.5-18.8
		c0,0-2.1-8-1.3-17.1c0,0,2.4,4.6,4.3,6.6c0,0-0.5,7,9.4,19.1c0,0,0.2,3.5,2.1,5.4c0,0-0.9,4.5,1.8,7.2c0,0,1.6,1.9,5.4,0
		c0,0,2.9-1.2,4.4-1.2c0,0,0.9-0.4,0.9-1.5c0,0,0.7-2.8-2.5-4.7c0,0-5.2-1.6-5.2-9.4c0,0,0.2-16.9-8.9-21.6c0,0-0.5-7.8-5.6-15.9
		c0,0,2.5-7.6-9.7-14.8c0,0-2.2-1.6-11.4-2.8v-3.8c0,0,4-2.9,4-6.1c0,0-2.3-1-1.4-4.7c0,0,2.2-7.2-3.1-9.9c0,0-2.8-12.7-14.4-10
		c0,0-9.3,2-6.4,12.4l-13.1-9.5c0,0,4.1-7.8-10.5-7.8l-18.7-14.9c0.9-2.9,0.5-5.7-1.4-7c-2.5-1.7-6.6,0-9.1,3.7
		c-2.5,3.8-2.6,8.2-0.1,9.8c1.8,1.3,4.5,0.7,6.9-1.2l21.4,13.9c-1.1,1.2-2.5,3.4-3.8,7.2c0,0-5.4,16.2-5.4,20.4
		c0,0,0.8,6.7,9.3,11.5c0,0,9.3,6,14,10.7c0,0-2,9.6,0.6,18c2.6,8.4-2.1,16.1-2.1,16.1s-3.2,6.4-0.6,12.6L682,12v0.7
		c0,0,0.1,4,2.7,4c0,0,2.2,0.1,4.1-0.9c0,0-0.1,26.4-1,33.7c-0.8,7.3,1.2,13.2,8.5,14.5c0,0-0.8,3.9,1.5,4.8c0,0,8.6,5.1,8.6,12.1
		c0,0-0.1,3.6-3.5,5.3c0,0-2.2,0.5-1.6,4.6c-6.9,3.8-11.8,10.9-11.8,19.4c0,9.3,5.7,17.3,13.9,20.7l-52.6,287.2
		c-1.7,9.2-5,9.3-7.3,0.3l-14.7-56.5c-2.3-9-6.2-9-8.5,0l-14.7,56.5c-2.3,9-4.3,24-4.3,33.4v391.3c0,9.3,7.6,17,17,17h187.5
		c9.3,0,16.9-7.6,16.9-17V451.8c0-9.3-1.9-24.3-4.3-33.4L803.5,361.9z M700.7-78.3h-7.1c-3.8-2.7-9.8-3-9.8-3
		c-4.8-4.8-11.9-6.4-11.9-6.4c1-4.9,1-16.8,1-16.8c2.6-0.8,4.9-1.9,6.2-2.7l16.6,10.8c-0.7,4.2,1.5,6.5,2.1,7.2
		c-0.1,0.1-0.1,0.2-0.2,0.2c-4.1,4.1,3,7.2,3,7.2L700.7-78.3L700.7-78.3z M1011.5,597.4l-7-27.1c-2.3-9-6.2-9-8.5,0l-7,27.1
		c-2.4,9-5.6,8.9-7.3-0.3l-36.9-201.7c-1.7-9.2-4.4-9.2-6.1,0l-36.9,201.7c-1.7,9.2-5,9.3-7.3,0.3l-7-27.1c-2.3-9-6.2-9-8.5,0
		l-7,27.1c-2.4,9-4.3,24-4.3,33.4v212.4c0,9.3,7.6,17,17,17h114.5c9.3,0,16.9-7.6,16.9-17V630.7
		C1015.8,621.4,1013.8,606.4,1011.5,597.4z"/>
</g>
</svg>
