<?xml version="1.0" encoding="utf-8"?>
<!-- Generator: Adobe Illustrator 19.1.0, SVG Export Plug-In . SVG Version: 6.00 Build 0)  -->
<svg version="1.1" id="Layer_1" xmlns="http://www.w3.org/2000/svg" xmlns:xlink="http://www.w3.org/1999/xlink" x="0px" y="0px"
	 viewBox="212 -140 1000 1000" style="enable-background:new 212 -140 1000 1000;" xml:space="preserve">
<style type="text/css">
	.st0{fill:#999999;}
</style>
<g>
	<path class="st0" d="M1008.5,771.6H760.3c-51.7,0-132.6-18.9-132.6-47.6v-19.1c-36.1-19.2-61.3-45.6-61.3-82.4
		c0-37,30.8-65.3,87.1-112.9c-32-23-40.4-48.8-40.4-69.6c0-36.9,30-64.6,84.4-114.9c3.1-2.8,6.2-5.7,9.4-8.7
		c-18.7-18.4-23.9-38.2-23.9-54.4c0-32.3,23.9-56.7,63.4-97.2c8.6-8.8,17.7-18.2,27.1-28.1c-14.2-19.9-44.8-28.3-66.7-31.4
		c-16.2-41.6-63.9-72-121.1-72C531.2,33.4,485,61,466.8,99.7c-61,1.8-110.8,37.8-120.6,85c-77.4,19-134,76-134,144.3
		c0,44.8,24.7,84.6,63.2,112.4c-14.8,16.7-23.7,37-23.7,59.1c0,44.6,35.9,82.2,85.7,96.2c10.2,48.3,62.2,85.2,125.3,85.2
		c18,0,35.2-3.1,50.8-8.5v67.9c-1,18.7-24.9,22.8-42.9,32.8c-13.1,4.9-22.6,17.4-22.6,32.1c0,7.6,6.1,13.8,13.7,13.8h567.4
		c7.6,0,13.8-6.2,13.8-13.8C1043,787.1,1027.5,771.6,1008.5,771.6"/>
	<path class="st0" d="M1079.7,498.5c52.6-14.3,85.8-35.2,85.8-58.5c0-23.2-65.3-68.6-129.8-131.8c36.5-11.5,59.8-27.8,59.8-46.1
		c0-21-60-64.5-111.5-125.8c19.4-9.7,31.6-23.2,31.6-38.3c0-26.2-72.8-93.9-96-190.2c0-3.7-3.6-6.7-6.2-6.7c-2.8,0-6.6,3-6.6,6.7
		h-0.2C882.2-0.8,811.3,71.9,811.3,98c0,14.3,11,27.2,28.6,36.8c-50.8,60.7-108.6,106.6-108.6,127.3c0,17.6,21.3,33.5,55.4,44.8
		C723.7,369.8,661.4,417.1,661.4,440c0,22.6,31.3,42.9,81,57.2c-67,58.7-127.7,102.9-127.7,125.3c0,41.2,104,75.5,241.6,83v106.9
		h114.2V705.5c137.6-7.5,241.6-41.8,241.6-83C1212.2,599.7,1148.5,557.2,1079.7,498.5"/>
</g>
</svg>
